HIERARCHY
ROOT joint_Root
{
	OFFSET 0.0 0.0 0.0
	CHANNELS 6 Xposition Yposition Zposition Zrotation Xrotation Yrotation 
	JOINT Hips
	{
		OFFSET 4.5925 91.4895 -427.239
		CHANNELS 6 Xposition Yposition Zposition Zrotation Xrotation Yrotation 
		JOINT Spine
		{
			OFFSET 15.7357 0.0 0.0
			CHANNELS 6 Xposition Yposition Zposition Zrotation Xrotation Yrotation 
			JOINT Chest
			{
				OFFSET 8.98455 -0.406207 0.0
				CHANNELS 6 Xposition Yposition Zposition Zrotation Xrotation Yrotation 
				JOINT Neck
				{
					OFFSET 16.3773 0.0 0.0
					CHANNELS 6 Xposition Yposition Zposition Zrotation Xrotation Yrotation 
					JOINT Head
					{
						OFFSET 6.45672 0.0 0.0
						CHANNELS 6 Xposition Yposition Zposition Zrotation Xrotation Yrotation 
						End Site
						{
							OFFSET 0.0 0.0 0.0
						}
					}
				}
				JOINT Shoulder_L
				{
					OFFSET 12.9942 -0.242716 4.98039
					CHANNELS 6 Xposition Yposition Zposition Zrotation Xrotation Yrotation 
					JOINT UpperArm_L
					{
						OFFSET 5.34809 0.0 0.0
						CHANNELS 6 Xposition Yposition Zposition Zrotation Xrotation Yrotation 
						JOINT LowerArm_L
						{
							OFFSET 24.3286 1.87007e-05 0.0
							CHANNELS 6 Xposition Yposition Zposition Zrotation Xrotation Yrotation 
							JOINT Hand_L
							{
								OFFSET 22.2916 0.0 0.0
								CHANNELS 6 Xposition Yposition Zposition Zrotation Xrotation Yrotation 
								End Site
								{
									OFFSET 0.0 0.0 0.0
								}
							}
						}
					}
				}
				JOINT Shoulder_R
				{
					OFFSET 12.9945 -0.242716 -4.98039
					CHANNELS 6 Xposition Yposition Zposition Zrotation Xrotation Yrotation 
					JOINT UpperArm_R
					{
						OFFSET -5.34813 0.0 0.0
						CHANNELS 6 Xposition Yposition Zposition Zrotation Xrotation Yrotation 
						JOINT LowerArm_R
						{
							OFFSET -24.3289 0.000322201 0.0
							CHANNELS 6 Xposition Yposition Zposition Zrotation Xrotation Yrotation 
							JOINT Hand_R
							{
								OFFSET -22.2915 -0.000108084 0.0
								CHANNELS 6 Xposition Yposition Zposition Zrotation Xrotation Yrotation 
								End Site
								{
									OFFSET 0.0 0.0 0.0
								}
							}
						}
					}
				}
			}
		}
		JOINT UpperLeg_L
		{
			OFFSET -2.19248 -6.46944 0.0
			CHANNELS 6 Xposition Yposition Zposition Zrotation Xrotation Yrotation 
			JOINT LowerLeg_L
			{
				OFFSET 39.0811 0.0 -1.23785e-05
				CHANNELS 6 Xposition Yposition Zposition Zrotation Xrotation Yrotation 
				JOINT Foot_L
				{
					OFFSET 40.9854 0.0 -1.26872e-05
					CHANNELS 6 Xposition Yposition Zposition Zrotation Xrotation Yrotation 
					JOINT Toes_L
					{
						OFFSET 11.7543 0.0 0.0
						CHANNELS 6 Xposition Yposition Zposition Zrotation Xrotation Yrotation 
						End Site
						{
							OFFSET 0.0 0.0 0.0
						}
					}
				}
			}
		}
		JOINT UpperLeg_R
		{
			OFFSET -2.19251 6.46944 0.0
			CHANNELS 6 Xposition Yposition Zposition Zrotation Xrotation Yrotation 
			JOINT LowerLeg_R
			{
				OFFSET -39.0811 -0.00228153 -0.0401928
				CHANNELS 6 Xposition Yposition Zposition Zrotation Xrotation Yrotation 
				JOINT Foot_R
				{
					OFFSET -40.9854 0.0 0.0
					CHANNELS 6 Xposition Yposition Zposition Zrotation Xrotation Yrotation 
					JOINT Toes_R
					{
						OFFSET -11.7543 0.0 0.0
						CHANNELS 6 Xposition Yposition Zposition Zrotation Xrotation Yrotation 
						End Site
						{
							OFFSET 0.0 0.0 0.0
						}
					}
				}
			}
		}
	}
}
MOTION
Frames:	4
Frame Time:	0.0333333
0.000000 0.000000 0.000000 0.000000 0.000000 -0.000000 -2.410160 90.163600 3.342630 90.478900 -1.298180 13.295100 15.735700 0.000005 -0.000001 85.969600 84.344500 -86.411400 8.984550 -0.406207 -0.000000 3.514390 -0.777638 -0.858933 16.377300 -0.000001 -0.000001 34.004500 -3.911290 1.536200 6.456720 -0.000001 -0.000000 19.888300 -4.907660 -0.867234 12.994200 -0.242716 4.980390 -85.934900 -9.200720 -66.036000 5.348090 -0.000007 -0.000001 -57.867200 -43.685200 -97.409800 24.328600 0.000019 0.000005 13.715000 12.241800 -49.014800 22.291600 -0.000001 0.000005 21.776600 5.337610 -1.008720 12.994500 -0.242716 -4.980390 91.579900 -5.263970 -73.266900 -5.348130 -0.000001 -0.000004 -48.977700 -38.719600 -85.780300 -24.328900 0.000322 -0.000009 6.094150 3.261120 -61.956000 -22.291500 -0.000108 -0.000004 29.994600 5.507310 -6.830690 -2.192480 -6.469440 -0.000000 -172.657000 -12.884400 5.646410 39.081100 -0.000007 -0.000012 -0.252370 0.417742 31.137900 40.985400 -0.000006 -0.000013 -0.872115 7.019070 -72.711500 11.754300 -0.000000 0.000003 -0.000103 -0.001058 -16.618100 -2.192510 6.469440 -0.000001 170.942000 23.117300 -171.653000 -39.081100 -0.002282 -0.040193 -0.268841 0.455042 30.882300 -40.985400 0.000008 0.000006 3.671320 11.700800 -74.785700 -11.754300 -0.000006 -0.000006 -0.001287 -0.019410 -17.362400
0.000000 0.000000 0.000000 0.000000 0.000000 -0.000000 -2.378900 90.151800 3.346440 90.437500 -1.350010 13.371700 15.735700 0.000005 -0.000001 86.157900 84.317600 -86.601000 8.984550 -0.406207 -0.000000 3.570820 -0.744353 -0.861958 16.377300 -0.000001 -0.000001 34.037100 -3.904210 1.401530 6.456720 -0.000001 -0.000000 19.695300 -4.863890 -1.105730 12.994200 -0.242716 4.980390 -85.939700 -9.158570 -65.964100 5.348090 -0.000007 -0.000001 -57.730900 -43.786600 -97.250600 24.328600 0.000019 0.000005 13.802400 12.315100 -49.035500 22.291600 -0.000001 0.000005 21.707400 5.338060 -1.022080 12.994500 -0.242716 -4.980390 91.588400 -5.285480 -73.247200 -5.348130 -0.000001 -0.000004 -49.141300 -38.666700 -85.921300 -24.328900 0.000322 -0.000009 6.054830 3.216970 -62.124400 -22.291500 -0.000108 -0.000004 30.083300 5.508420 -6.876640 -2.192480 -6.469440 -0.000000 -172.629000 -12.857900 5.702330 39.081100 -0.000007 -0.000012 -0.250926 0.414094 31.214800 40.985400 -0.000006 -0.000013 -0.865983 6.951900 -72.770900 11.754300 -0.000000 0.000003 -0.000093 -0.000966 -16.614700 -2.192510 6.469440 -0.000001 170.921000 23.120600 -171.595000 -39.081100 -0.002282 -0.040193 -0.267285 0.451643 30.926800 -40.985400 0.000008 0.000006 3.668090 11.749700 -74.796900 -11.754300 -0.000006 -0.000006 -0.001371 -0.020539 -17.408300
0.000000 0.000000 0.000000 0.000000 0.000000 -0.000000 -2.351740 90.152500 3.346360 90.410000 -1.390610 13.451800 15.735700 0.000005 -0.000001 86.450100 84.286500 -86.900900 8.984550 -0.406207 -0.000000 3.636800 -0.690388 -0.878680 16.377300 -0.000001 -0.000001 34.017000 -3.868080 1.254340 6.456720 -0.000001 -0.000000 19.641400 -4.783260 -1.194120 12.994200 -0.242716 4.980390 -85.952600 -9.098500 -65.893200 5.348090 -0.000007 -0.000001 -57.647200 -43.792300 -97.160200 24.328600 0.000019 0.000005 13.744200 12.265100 -49.024500 22.291600 -0.000001 0.000005 21.722000 5.339880 -1.075990 12.994500 -0.242716 -4.980390 91.587700 -5.261310 -73.181300 -5.348130 -0.000001 -0.000004 -49.160700 -38.581100 -85.971600 -24.328900 0.000322 -0.000009 6.021530 3.171250 -62.330900 -22.291500 -0.000108 -0.000004 30.070900 5.510750 -6.972930 -2.192480 -6.469440 -0.000000 -172.592000 -12.879200 5.776530 39.081100 -0.000007 -0.000012 -0.250317 0.412799 31.232600 40.985400 -0.000006 -0.000013 -0.845664 6.954620 -72.781400 11.754300 -0.000000 0.000003 -0.000102 -0.001045 -16.617600 -2.192510 6.469440 -0.000001 170.889000 23.098900 -171.499000 -39.081100 -0.002282 -0.040193 -0.269231 0.455260 30.906300 -40.985400 0.000008 0.000006 3.652590 11.784100 -74.779100 -11.754300 -0.000006 -0.000006 -0.001290 -0.019445 -17.363800
0.000000 0.000000 0.000000 0.000000 0.000000 -0.000000 -2.317540 90.152200 3.337060 90.382000 -1.415090 13.498700 15.735700 0.000005 -0.000001 86.645100 84.265500 -87.106300 8.984550 -0.406207 -0.000000 3.681060 -0.653864 -0.900290 16.377300 -0.000001 -0.000001 34.049800 -3.802900 1.163160 6.456720 -0.000001 -0.000000 19.587300 -4.689330 -1.307920 12.994200 -0.242716 4.980390 -85.961600 -9.070630 -65.876100 5.348090 -0.000007 -0.000001 -57.595800 -43.786900 -97.043200 24.328600 0.000019 0.000005 13.792000 12.304000 -49.038600 22.291600 -0.000001 0.000005 21.708500 5.338530 -1.036010 12.994500 -0.242716 -4.980390 91.581100 -5.241630 -73.187900 -5.348130 -0.000001 -0.000004 -48.959600 -38.526000 -85.812800 -24.328900 0.000322 -0.000009 6.074250 3.161230 -62.611400 -22.291500 -0.000108 -0.000004 30.055600 5.506990 -6.817450 -2.192480 -6.469440 -0.000000 -172.575000 -12.898800 5.819080 39.081100 -0.000007 -0.000012 -0.248572 0.409545 31.256000 40.985400 -0.000006 -0.000013 -0.819927 6.939620 -72.802200 11.754300 -0.000000 0.000003 -0.000093 -0.000968 -16.614800 -2.192510 6.469440 -0.000001 170.826000 23.218000 -171.441000 -39.081100 -0.002282 -0.040193 -0.264423 0.447200 30.907900 -40.985400 0.000008 0.000006 3.681050 11.937500 -74.768800 -11.754300 -0.000006 -0.000006 -0.001374 -0.020588 -17.410300
